<svg xmlns="http://www.w3.org/2000/svg" viewBox="0 0 34 34"><rect width="34" height="34" rx="9" fill="#1c3f8f"/><g fill="#e5b64c"><rect x="16.1" y="4.6" width="1.8" height="5.2" rx=".9" transform="rotate(0 17 17)"/><rect x="16.1" y="4.6" width="1.8" height="5.2" rx=".9" transform="rotate(45 17 17)"/><rect x="16.1" y="4.6" width="1.8" height="5.2" rx=".9" transform="rotate(90 17 17)"/><rect x="16.1" y="4.6" width="1.8" height="5.2" rx=".9" transform="rotate(135 17 17)"/><rect x="16.1" y="4.6" width="1.8" height="5.2" rx=".9" transform="rotate(180 17 17)"/><rect x="16.1" y="4.6" width="1.8" height="5.2" rx=".9" transform="rotate(225 17 17)"/><rect x="16.1" y="4.6" width="1.8" height="5.2" rx=".9" transform="rotate(270 17 17)"/><rect x="16.1" y="4.6" width="1.8" height="5.2" rx=".9" transform="rotate(315 17 17)"/><circle cx="17" cy="17" r="5.1"/></g><circle cx="17" cy="17" r="2.2" fill="#1c3f8f"/></svg>
